<svg width="24" height="24" viewBox="0 0 24 24" fill="none" xmlns="http://www.w3.org/2000/svg">
<path d="M19.0002 7.25009H18.7502V5.00009C18.7476 4.53677 18.5624 4.09318 18.2348 3.76556C17.9072 3.43793 17.4636 3.25272 17.0002 3.25009C16.9209 3.23565 16.8396 3.23565 16.7602 3.25009L4.86024 7.25009H4.75024H4.59024L4.42024 7.31009H4.28024L4.12024 7.40009L4.00024 7.57009L3.86024 7.69009L3.75024 7.79009L3.63024 7.94009C3.59825 7.96879 3.57122 8.00258 3.55024 8.04009C3.51313 8.09791 3.47973 8.15803 3.45024 8.22009L3.39024 8.33009C3.3624 8.40191 3.33902 8.47539 3.32024 8.55009C3.32474 8.58662 3.32474 8.62356 3.32024 8.66009C3.30992 8.77319 3.30992 8.88699 3.32024 9.00009V19.0001C3.32234 19.4516 3.49789 19.885 3.81058 20.2108C4.12327 20.5365 4.54919 20.7296 5.00024 20.7501H19.0002C19.4636 20.7475 19.9072 20.5623 20.2348 20.2346C20.5624 19.907 20.7476 19.4634 20.7502 19.0001V9.00009C20.7476 8.53677 20.5624 8.09318 20.2348 7.76556C19.9072 7.43793 19.4636 7.25272 19.0002 7.25009ZM17.0802 4.76009C17.1295 4.77826 17.1721 4.81091 17.2024 4.85374C17.2328 4.89658 17.2494 4.9476 17.2502 5.00009V7.25009H9.62024L17.0802 4.76009ZM19.2502 19.0001C19.2502 19.0664 19.2239 19.13 19.177 19.1769C19.1301 19.2238 19.0665 19.2501 19.0002 19.2501H5.00024C4.93394 19.2501 4.87035 19.2238 4.82347 19.1769C4.77658 19.13 4.75024 19.0664 4.75024 19.0001V9.00009C4.75024 8.93379 4.77658 8.8702 4.82347 8.82331C4.87035 8.77643 4.93394 8.75009 5.00024 8.75009H19.0002C19.0665 8.75009 19.1301 8.77643 19.177 8.82331C19.2239 8.8702 19.2502 8.93379 19.2502 9.00009V19.0001Z" fill="#3E8AB8"/>
<path d="M16.5 15.25C17.1904 15.25 17.75 14.6904 17.75 14C17.75 13.3096 17.1904 12.75 16.5 12.75C15.8096 12.75 15.25 13.3096 15.25 14C15.25 14.6904 15.8096 15.25 16.5 15.25Z" fill="#3E8AB8"/>
</svg>
